<?xml version="1.0" standalone="no"?><!-- Generator: Gravit.io --><svg xmlns="http://www.w3.org/2000/svg" xmlns:xlink="http://www.w3.org/1999/xlink" style="isolation:isolate" viewBox="33 19.38 591.13 156.94" width="591.13" height="156.94"><g id="Grupo"><g id="Grupo"><path d=" M 45.197 157.211 C 45.197 158.829 44.555 160.382 43.408 161.52 C 42.27 162.667 40.717 163.309 39.099 163.309 C 37.481 163.309 35.927 162.667 34.789 161.52 C 33.642 160.382 33 158.829 33 157.211 L 33 32.797 C 33 31.179 33.642 29.626 34.789 28.487 C 35.927 27.341 37.481 26.698 39.099 26.698 C 40.717 26.698 42.27 27.341 43.408 28.487 C 44.555 29.626 45.197 31.179 45.197 32.797 L 45.197 157.211 Z " fill="rgb(0,0,0)"/><path d=" M 74.471 170.221 C 74.471 171.839 73.829 173.393 72.682 174.531 C 71.544 175.678 69.991 176.32 68.372 176.32 C 66.754 176.32 65.201 175.678 64.063 174.531 C 62.916 173.393 62.274 171.839 62.274 170.221 L 62.274 25.479 C 62.274 23.861 62.916 22.307 64.063 21.169 C 65.201 20.022 66.754 19.38 68.372 19.38 C 69.991 19.38 71.544 20.022 72.682 21.169 C 73.829 22.307 74.471 23.861 74.471 25.479 L 74.471 170.221 Z " fill="rgb(0,0,0)"/><path d=" M 101.305 151.519 C 101.305 153.137 100.663 154.69 99.517 155.828 C 98.378 156.975 96.825 157.617 95.207 157.617 C 93.589 157.617 92.035 156.975 90.897 155.828 C 89.75 154.69 89.108 153.137 89.108 151.519 L 89.108 45.808 C 89.108 44.19 89.75 42.636 90.897 41.498 C 92.035 40.351 93.589 39.709 95.207 39.709 C 96.825 39.709 98.378 40.351 99.517 41.498 C 100.663 42.636 101.305 44.19 101.305 45.808 L 101.305 151.519 Z " fill="rgb(0,0,0)"/><path d=" M 128.953 162.09 C 128.953 163.708 128.311 165.261 127.164 166.399 C 126.026 167.546 124.472 168.188 122.854 168.188 C 121.236 168.188 119.683 167.546 118.544 166.399 C 117.398 165.261 116.756 163.708 116.756 162.09 L 116.756 27.918 C 116.756 26.3 117.398 24.747 118.544 23.608 C 119.683 22.462 121.236 21.819 122.854 21.819 C 124.472 21.819 126.026 22.462 127.164 23.608 C 128.311 24.747 128.953 26.3 128.953 27.918 L 128.953 162.09 Z " fill="rgb(0,0,0)"/><path d=" M 156.6 132.816 C 156.6 134.434 155.958 135.987 154.811 137.126 C 153.673 138.272 152.12 138.915 150.502 138.915 C 148.884 138.915 147.33 138.272 146.192 137.126 C 145.045 135.987 144.403 134.434 144.403 132.816 L 144.403 67.763 C 144.403 66.145 145.045 64.592 146.192 63.453 C 147.33 62.307 148.884 61.664 150.502 61.664 C 152.12 61.664 153.673 62.307 154.811 63.453 C 155.958 64.592 156.6 66.145 156.6 67.763 L 156.6 132.816 Z " fill="rgb(0,0,0)"/></g><path d=" M 253.37 116.91 L 253.37 116.91 Q 253.37 123.93 249.86 129.845 L 249.86 129.845 L 249.86 129.845 Q 246.35 135.76 239.46 139.335 L 239.46 139.335 L 239.46 139.335 Q 232.57 142.91 222.69 142.91 L 222.69 142.91 L 222.69 142.91 Q 212.94 142.91 205.27 139.595 L 205.27 139.595 L 205.27 139.595 Q 197.6 136.28 192.985 130.04 L 192.985 130.04 L 192.985 130.04 Q 188.37 123.8 187.72 115.48 L 187.72 115.48 L 207.22 115.48 L 207.22 115.48 Q 207.87 121.07 211.705 124.775 L 211.705 124.775 L 211.705 124.775 Q 215.54 128.48 221.91 128.48 L 221.91 128.48 L 221.91 128.48 Q 227.63 128.48 230.685 125.425 L 230.685 125.425 L 230.685 125.425 Q 233.74 122.37 233.74 117.56 L 233.74 117.56 L 233.74 117.56 Q 233.74 113.27 231.27 110.475 L 231.27 110.475 L 231.27 110.475 Q 228.8 107.68 225.03 105.99 L 225.03 105.99 L 225.03 105.99 Q 221.26 104.3 214.63 102.09 L 214.63 102.09 L 214.63 102.09 Q 206.05 99.23 200.59 96.435 L 200.59 96.435 L 200.59 96.435 Q 195.13 93.64 191.295 88.31 L 191.295 88.31 L 191.295 88.31 Q 187.46 82.98 187.46 74.4 L 187.46 74.4 L 187.46 74.4 Q 187.46 62.57 195.975 55.745 L 195.975 55.745 L 195.975 55.745 Q 204.49 48.92 218.53 48.92 L 218.53 48.92 L 218.53 48.92 Q 233.09 48.92 241.735 55.94 L 241.735 55.94 L 241.735 55.94 Q 250.38 62.96 251.55 74.66 L 251.55 74.66 L 231.79 74.66 L 231.79 74.66 Q 231.01 69.72 227.63 66.535 L 227.63 66.535 L 227.63 66.535 Q 224.25 63.35 218.4 63.35 L 218.4 63.35 L 218.4 63.35 Q 213.33 63.35 210.21 66.015 L 210.21 66.015 L 210.21 66.015 Q 207.09 68.68 207.09 73.75 L 207.09 73.75 L 207.09 73.75 Q 207.09 77.78 209.495 80.445 L 209.495 80.445 L 209.495 80.445 Q 211.9 83.11 215.605 84.8 L 215.605 84.8 L 215.605 84.8 Q 219.31 86.49 225.68 88.57 L 225.68 88.57 L 225.68 88.57 Q 234.52 91.69 240.045 94.42 L 240.045 94.42 L 240.045 94.42 Q 245.57 97.15 249.47 102.61 L 249.47 102.61 L 249.47 102.61 Q 253.37 108.07 253.37 116.91 L 253.37 116.91 L 253.37 116.91 Z  M 309.92 69.07 L 309.92 69.07 Q 319.02 69.07 326.3 73.49 L 326.3 73.49 L 326.3 73.49 Q 333.58 77.91 337.675 86.295 L 337.675 86.295 L 337.675 86.295 Q 341.77 94.68 341.77 105.99 L 341.77 105.99 L 341.77 105.99 Q 341.77 117.3 337.675 125.685 L 337.675 125.685 L 337.675 125.685 Q 333.58 134.07 326.3 138.49 L 326.3 138.49 L 326.3 138.49 Q 319.02 142.91 309.92 142.91 L 309.92 142.91 L 309.92 142.91 Q 300.82 142.91 294.385 138.555 L 294.385 138.555 L 294.385 138.555 Q 287.95 134.2 285.22 126.92 L 285.22 126.92 L 285.22 176.32 L 266.89 176.32 L 266.89 69.98 L 285.22 69.98 L 285.22 84.93 L 285.22 84.93 Q 287.95 77.65 294.385 73.36 L 294.385 73.36 L 294.385 73.36 Q 300.82 69.07 309.92 69.07 L 309.92 69.07 L 309.92 69.07 Z  M 304.2 85.06 L 304.2 85.06 Q 295.88 85.06 290.485 90.715 L 290.485 90.715 L 290.485 90.715 Q 285.09 96.37 285.09 105.99 L 285.09 105.99 L 285.09 105.99 Q 285.09 115.48 290.485 121.135 L 290.485 121.135 L 290.485 121.135 Q 295.88 126.79 304.2 126.79 L 304.2 126.79 L 304.2 126.79 Q 312.78 126.79 317.98 121.265 L 317.98 121.265 L 317.98 121.265 Q 323.18 115.74 323.18 105.99 L 323.18 105.99 L 323.18 105.99 Q 323.18 96.24 317.98 90.65 L 317.98 90.65 L 317.98 90.65 Q 312.78 85.06 304.2 85.06 L 304.2 85.06 L 304.2 85.06 Z  M 388.05 69.07 L 388.05 69.07 Q 398.58 69.07 406.965 73.49 L 406.965 73.49 L 406.965 73.49 Q 415.35 77.91 420.16 86.295 L 420.16 86.295 L 420.16 86.295 Q 424.97 94.68 424.97 105.99 L 424.97 105.99 L 424.97 105.99 Q 424.97 117.3 420.16 125.62 L 420.16 125.62 L 420.16 125.62 Q 415.35 133.94 406.965 138.425 L 406.965 138.425 L 406.965 138.425 Q 398.58 142.91 388.05 142.91 L 388.05 142.91 L 388.05 142.91 Q 377.52 142.91 369.135 138.425 L 369.135 138.425 L 369.135 138.425 Q 360.75 133.94 355.94 125.62 L 355.94 125.62 L 355.94 125.62 Q 351.13 117.3 351.13 105.99 L 351.13 105.99 L 351.13 105.99 Q 351.13 94.68 355.94 86.295 L 355.94 86.295 L 355.94 86.295 Q 360.75 77.91 369.135 73.49 L 369.135 73.49 L 369.135 73.49 Q 377.52 69.07 388.05 69.07 L 388.05 69.07 L 388.05 69.07 Z  M 388.05 84.93 L 388.05 84.93 Q 380.38 84.93 375.05 90.325 L 375.05 90.325 L 375.05 90.325 Q 369.72 95.72 369.72 105.99 L 369.72 105.99 L 369.72 105.99 Q 369.72 116.26 375.05 121.655 L 375.05 121.655 L 375.05 121.655 Q 380.38 127.05 388.05 127.05 L 388.05 127.05 L 388.05 127.05 Q 395.72 127.05 401.05 121.655 L 401.05 121.655 L 401.05 121.655 Q 406.38 116.26 406.38 105.99 L 406.38 105.99 L 406.38 105.99 Q 406.38 95.72 401.05 90.325 L 401.05 90.325 L 401.05 90.325 Q 395.72 84.93 388.05 84.93 L 388.05 84.93 L 388.05 84.93 Z  M 486.85 84.41 L 452.79 126.66 L 488.15 126.66 L 488.15 142 L 432.77 142 L 432.77 127.44 L 465.92 85.19 L 433.55 85.19 L 433.55 69.98 L 486.85 69.98 L 486.85 84.41 L 486.85 84.41 Z  M 567.32 103.26 L 567.32 103.26 Q 567.32 105.99 566.67 109.5 L 566.67 109.5 L 513.89 109.5 L 513.89 109.5 Q 514.28 119.12 519.09 123.67 L 519.09 123.67 L 519.09 123.67 Q 523.9 128.22 531.05 128.22 L 531.05 128.22 L 531.05 128.22 Q 537.42 128.22 541.645 125.1 L 541.645 125.1 L 541.645 125.1 Q 545.87 121.98 547.04 116.65 L 547.04 116.65 L 566.41 116.65 L 566.41 116.65 Q 564.98 124.19 560.3 130.17 L 560.3 130.17 L 560.3 130.17 Q 555.62 136.15 548.275 139.53 L 548.275 139.53 L 548.275 139.53 Q 540.93 142.91 531.96 142.91 L 531.96 142.91 L 531.96 142.91 Q 521.43 142.91 513.24 138.425 L 513.24 138.425 L 513.24 138.425 Q 505.05 133.94 500.5 125.62 L 500.5 125.62 L 500.5 125.62 Q 495.95 117.3 495.95 105.99 L 495.95 105.99 L 495.95 105.99 Q 495.95 94.68 500.5 86.295 L 500.5 86.295 L 500.5 86.295 Q 505.05 77.91 513.24 73.49 L 513.24 73.49 L 513.24 73.49 Q 521.43 69.07 531.96 69.07 L 531.96 69.07 L 531.96 69.07 Q 542.62 69.07 550.615 73.49 L 550.615 73.49 L 550.615 73.49 Q 558.61 77.91 562.965 85.645 L 562.965 85.645 L 562.965 85.645 Q 567.32 93.38 567.32 103.26 L 567.32 103.26 L 567.32 103.26 Z  M 548.86 101.44 L 548.86 101.44 Q 549.25 92.6 544.245 88.05 L 544.245 88.05 L 544.245 88.05 Q 539.24 83.5 531.96 83.5 L 531.96 83.5 L 531.96 83.5 Q 524.55 83.5 519.48 88.05 L 519.48 88.05 L 519.48 88.05 Q 514.41 92.6 513.89 101.44 L 513.89 101.44 L 548.86 101.44 L 548.86 101.44 Z  M 598.65 83.76 L 598.65 83.76 Q 602.68 76.87 609.31 72.905 L 609.31 72.905 L 609.31 72.905 Q 615.94 68.94 624.13 68.94 L 624.13 68.94 L 624.13 88.57 L 618.8 88.57 L 618.8 88.57 Q 598.65 88.57 598.65 107.29 L 598.65 107.29 L 598.65 142 L 580.32 142 L 580.32 69.98 L 598.65 69.98 L 598.65 83.76 L 598.65 83.76 Z " fill-rule="evenodd" fill="rgb(0,0,0)"/></g></svg>